# Blender 4.3.2
# www.blender.org
mtllib PlayerThrusterFlame.mtl
o Cube.001
v -0.075000 -0.037500 0.000000
v -0.037500 -0.075000 0.000000
v -0.037500 0.075000 0.000000
v -0.075000 0.037500 0.000000
v -0.037500 -0.075000 -0.050000
v -0.075000 -0.037500 -0.050000
v -0.075000 0.037500 -0.050000
v -0.037500 0.075000 -0.050000
v 0.037500 -0.075000 0.000000
v 0.075000 -0.037500 0.000000
v 0.075000 0.037500 0.000000
v 0.037500 0.075000 0.000000
v 0.075000 -0.037500 -0.050000
v 0.037500 -0.075000 -0.050000
v 0.037500 0.075000 -0.050000
v 0.075000 0.037500 -0.050000
v -0.018750 -0.037500 -0.100000
v -0.037500 -0.018750 -0.100000
v -0.037500 0.018750 -0.100000
v -0.018750 0.037500 -0.100000
v 0.037500 -0.018750 -0.100000
v 0.018750 -0.037500 -0.100000
v 0.018750 0.037500 -0.100000
v 0.037500 0.018750 -0.100000
v -0.046875 -0.023438 -0.125000
v -0.023438 -0.046875 -0.125000
v -0.023438 0.046875 -0.125000
v -0.046875 0.023438 -0.125000
v 0.023438 -0.046875 -0.125000
v 0.046875 -0.023438 -0.125000
v 0.046875 0.023438 -0.125000
v 0.023438 0.046875 -0.125000
v 0.000000 0.000000 -0.125000
vn -0.0000 -0.0000 1.0000
vn 1.0000 -0.0000 -0.0000
vn -0.0000 1.0000 -0.0000
vn -1.0000 -0.0000 -0.0000
vn -0.0000 -0.8000 -0.6000
vn -0.7071 -0.7071 -0.0000
vn -0.7071 0.7071 -0.0000
vn 0.7071 -0.7071 -0.0000
vn 0.7071 0.7071 -0.0000
vn -0.0000 -1.0000 -0.0000
vn -0.6570 0.6570 0.3696
vn 0.8000 -0.0000 -0.6000
vn 0.5534 0.5534 -0.6225
vn 0.5534 -0.5534 -0.6225
vn -0.8000 -0.0000 -0.6000
vn -0.5534 0.5534 -0.6225
vn -0.0000 0.8000 -0.6000
vn -0.5534 -0.5534 -0.6225
vn -0.0000 0.9363 0.3511
vn -0.0000 -0.9363 0.3511
vn 0.6570 -0.6570 0.3696
vn -0.6570 -0.6570 0.3696
vn 0.9363 -0.0000 0.3511
vn -0.9363 -0.0000 0.3511
vn 0.6570 0.6570 0.3696
vn -0.0000 -0.0000 -1.0000
vt 0.375000 0.812500
vt 0.437500 0.750000
vt 0.562500 0.750000
vt 0.625000 0.812500
vt 0.625000 0.937500
vt 0.562500 1.000000
vt 0.437500 1.000000
vt 0.375000 0.937500
vt 0.437500 0.500000
vt 0.562500 0.500000
vt 0.687500 0.500000
vt 0.812500 0.500000
vt 0.812500 0.750000
vt 0.687500 0.750000
vt 0.437500 0.000000
vt 0.562500 0.000000
vt 0.562500 0.250000
vt 0.437500 0.250000
vt 0.312500 0.500000
vt 0.187500 0.500000
vt 0.187500 0.750000
vt 0.125000 0.750000
vt 0.125000 0.500000
vt 0.625000 0.000000
vt 0.625000 0.250000
vt 0.312500 0.750000
vt 0.000000 0.000000
s 0
f 9/1/1 10/2/1 11/3/1 12/4/1 3/5/1 4/6/1 1/7/1 2/8/1
f 13/9/2 16/10/2 11/3/2 10/2/2
f 15/11/3 8/12/3 3/13/3 12/14/3
f 1/15/4 4/16/4 7/17/4 6/18/4
f 14/19/5 5/20/5 17/20/5 22/19/5
f 5/20/6 2/21/6 1/22/6 6/23/6
f 3/24/7 8/25/7 7/17/7 4/16/7
f 9/26/8 14/19/8 13/9/8 10/2/8
f 15/11/9 12/14/9 11/3/9 16/10/9
f 5/20/10 14/19/10 9/26/10 2/21/10
f 19/17/11 20/25/11 27/25/11 28/17/11
f 16/10/12 13/9/12 21/9/12 24/10/12
f 15/11/13 16/10/13 24/10/13 23/11/13
f 13/9/14 14/19/14 22/19/14 21/9/14
f 6/18/15 7/17/15 19/17/15 18/18/15
f 7/17/16 8/25/16 20/25/16 19/17/16
f 8/12/17 15/11/17 23/11/17 20/12/17
f 5/20/18 6/23/18 18/23/18 17/20/18
f 20/12/19 23/11/19 32/11/19 27/12/19
f 22/19/20 17/20/20 26/20/20 29/19/20
f 21/9/21 22/19/21 29/19/21 30/9/21
f 17/20/22 18/23/22 25/23/22 26/20/22
f 24/10/23 21/9/23 30/9/23 31/10/23
f 18/18/24 19/17/24 28/17/24 25/18/24
f 23/11/25 24/10/25 31/10/25 32/11/25
f 32/11/26 33/27/26 27/12/26
f 28/17/26 27/12/26 33/27/26
f 26/20/26 25/23/26 33/27/26
f 25/23/26 28/17/26 33/27/26
f 29/19/26 26/20/26 33/27/26
f 30/9/26 29/19/26 33/27/26
f 32/11/26 31/10/26 33/27/26
f 30/9/26 33/27/26 31/10/26
