# Blender 4.3.2
# www.blender.org
mtllib PlayerModel.mtl
o Cube
v -0.300000 -0.100000 0.100000
v -0.100000 -0.100000 -0.500000
v -0.300000 -0.100000 -0.300000
v -0.270000 0.270000 -0.300000
v 0.300000 -0.100000 0.100000
v 0.100000 -0.100000 -0.500000
v 0.300000 -0.100000 -0.300000
v 0.270000 0.270000 -0.300000
v -0.300000 -0.100000 0.000000
v -0.270000 0.270000 0.000000
v 0.300000 -0.100000 0.000000
v 0.270000 0.270000 0.000000
v -0.300000 0.100000 0.100000
v -0.300000 0.100000 -0.300000
v 0.300000 0.100000 -0.300000
v 0.300000 0.100000 0.100000
v 0.300000 0.100000 0.000000
v -0.300000 0.100000 0.000000
v -0.100000 0.300000 -0.500000
v 0.100000 0.300000 -0.500000
v -0.100000 -0.100000 0.500000
v 0.100000 -0.100000 0.500000
v -0.100000 0.300000 0.000000
v 0.100000 0.300000 0.000000
v 0.100000 -0.150000 0.000000
v -0.100000 -0.150000 0.000000
v 0.100000 0.100000 0.500000
v -0.100000 0.100000 0.500000
v -0.100000 0.100000 -0.500000
v 0.100000 0.100000 -0.500000
v -0.080000 0.500000 -0.500000
v 0.080000 0.500000 -0.500000
v -0.080000 0.500000 -0.100000
v 0.080000 0.500000 -0.100000
v -0.400000 -0.050000 -0.200000
v -0.400000 -0.050000 0.000000
v -0.400000 0.050000 -0.200000
v -0.400000 0.050000 0.000000
v 0.400000 -0.050000 -0.200000
v 0.400000 -0.050000 0.000000
v 0.400000 0.050000 -0.200000
v 0.400000 0.050000 0.000000
v -0.100000 -0.150000 -0.300000
v 0.100000 -0.150000 -0.300000
vn -0.9848 0.1738 -0.0000
vn 0.7350 0.0596 -0.6754
vn -0.5228 0.7370 0.4283
vn 0.2033 -0.9757 0.0813
vn 0.9848 0.1738 -0.0000
vn -0.1738 0.9848 -0.0000
vn -0.7071 -0.0000 -0.7071
vn -1.0000 -0.0000 -0.0000
vn 0.4472 -0.8944 -0.0000
vn -0.8944 -0.0000 0.4472
vn 1.0000 -0.0000 -0.0000
vn 0.7071 -0.0000 -0.7071
vn -0.4472 0.8944 -0.0000
vn -0.0000 -0.0000 -1.0000
vn 0.8944 -0.0000 0.4472
vn -0.0000 -0.0000 1.0000
vn 0.1738 0.9848 -0.0000
vn 0.9950 0.0995 -0.0000
vn -0.2033 -0.9757 0.0813
vn -0.0000 -0.9950 0.0995
vn 0.5228 0.7370 0.4283
vn -0.0000 0.9285 0.3714
vn -0.7350 0.0596 -0.6754
vn -0.0000 1.0000 -0.0000
vn -0.0000 0.4472 0.8944
vn -0.9950 0.0995 -0.0000
vn -0.4472 -0.8944 -0.0000
vn 0.4472 0.8944 -0.0000
vn -0.2425 -0.9701 -0.0000
vn -0.0000 -1.0000 -0.0000
vn 0.2425 -0.9701 -0.0000
vn 0.2357 -0.9428 -0.2357
vn -0.2357 -0.9428 -0.2357
vn -0.0000 -0.9701 -0.2425
vt 0.123782 0.559038
vt 0.227113 0.571720
vt 0.224593 0.702158
vt 0.121261 0.689476
vt 0.636120 0.618239
vt 0.757382 0.618205
vt 0.739448 0.777034
vt 0.636120 0.789745
vt 0.124622 0.515558
vt 0.757429 0.618205
vt 0.757429 0.295588
vt 0.860522 0.299642
vt 0.878715 0.381734
vt 0.298531 0.301409
vt 0.385554 0.385900
vt 0.342887 0.428914
vt 0.086108 0.515558
vt 0.639530 0.963661
vt 0.638678 0.920182
vt 0.742005 0.907471
vt 0.757429 0.000000
vt 0.860522 0.122289
vt -0.000000 0.689476
vt 0.121309 0.860982
vt 0.000048 0.860982
vt 0.003361 0.515558
vt 0.002521 0.559038
vt 0.513557 0.256857
vt 0.514859 0.341655
vt 0.429524 0.427684
vt 0.905548 0.739490
vt 0.785055 0.739490
vt 0.757382 0.618205
vt 0.877875 0.618205
vt 0.517416 0.920216
vt 0.518269 0.963695
vt 0.514859 0.618272
vt 0.514859 0.789779
vt 0.878715 0.304764
vt 0.878715 0.127412
vt 0.939357 0.193287
vt 0.939357 0.311522
vt 0.123038 0.945530
vt 0.001776 0.945530
vt 0.877875 0.982060
vt 0.757381 0.982060
vt 0.785055 0.860775
vt 0.905548 0.860775
vt 0.533052 0.122289
vt 0.636144 0.000000
vt 0.636144 0.295588
vt 0.533052 0.299642
vt 0.488941 0.515558
vt 0.488941 0.732996
vt 0.367366 0.739103
vt 0.367366 0.565153
vt 0.127230 0.129659
vt 0.212423 0.215995
vt -0.000000 0.430145
vt 0.084562 0.172673
vt 0.514859 0.381734
vt 0.636144 0.618205
vt 0.242570 0.860982
vt 0.244299 0.945530
vt 0.367366 0.739103
vt 0.464394 0.739103
vt 0.464394 0.975573
vt 0.367366 0.975573
vt 1.000000 0.127412
vt 0.878715 0.127412
vt 0.890843 0.000000
vt 0.987871 0.000000
vt 0.364005 0.869437
vt 0.365387 0.937075
vt 0.246772 0.643585
vt 0.367366 0.695519
vt 0.031972 0.516764
vt 0.092603 0.516764
vt 0.090922 0.603723
vt 0.030291 0.603723
vt 0.255233 0.000615
vt 0.085091 0.086029
vt 0.170427 0.000000
vt 0.878715 0.616125
vt 0.878715 0.495632
vt 0.939357 0.525755
vt 0.939357 0.586002
vt 0.545174 0.875523
vt 0.605805 0.875506
vt 0.607510 0.962465
vt 0.546879 0.962482
vt 0.966191 0.618205
vt 0.966191 0.738698
vt 0.905548 0.708575
vt 0.905548 0.648328
vt 0.939357 0.311522
vt 0.939357 0.488874
vt 0.878715 0.495632
vt 0.878715 0.377397
vt 0.340426 0.086952
vt 0.426534 0.172365
vt 0.512784 0.085414
vt 0.426676 0.000000
s 0
f 18/1/1 10/2/1 4/3/1 14/4/1
f 30/5/2 20/6/2 8/7/2 15/8/2
f 13/9/1 10/2/1 18/1/1
f 28/10/3 23/11/3 10/12/3 13/13/3
f 25/14/4 11/15/4 5/16/4 22/17/4
f 16/18/5 17/19/5 12/20/5
f 19/21/6 4/22/6 10/12/6 23/11/6
f 15/8/5 8/7/5 12/20/5 17/19/5
f 3/23/7 14/4/7 29/24/7 2/25/7
f 1/26/8 13/9/8 18/1/8 9/27/8
f 11/15/9 7/28/9 39/29/9 40/30/9
f 21/31/10 28/32/10 13/33/10 1/34/10
f 11/35/11 17/19/11 16/18/11 5/36/11
f 6/37/12 30/5/12 15/8/12 7/38/12
f 18/39/13 14/40/13 37/41/13 38/42/13
f 2/25/14 29/24/14 30/43/14 6/44/14
f 5/45/15 16/46/15 27/47/15 22/48/15
f 22/48/16 27/47/16 28/32/16 21/31/16
f 8/49/17 20/50/17 24/51/17 12/52/17
f 24/53/18 20/54/18 32/55/18 34/56/18
f 9/57/19 26/58/19 21/59/19 1/60/19
f 26/58/20 25/14/20 22/17/20 21/59/20
f 16/61/21 12/52/21 24/51/21 27/62/21
f 27/62/22 24/51/22 23/11/22 28/10/22
f 14/4/23 4/3/23 19/63/23 29/24/23
f 29/24/14 19/63/14 20/64/14 30/43/14
f 32/65/24 31/66/24 33/67/24 34/68/24
f 23/69/25 24/70/25 34/71/25 33/72/25
f 20/64/14 19/63/14 31/73/14 32/74/14
f 19/63/26 23/75/26 33/76/26 31/73/26
f 36/77/8 38/78/8 37/79/8 35/80/8
f 14/4/7 3/23/7 35/80/7 37/79/7
f 3/81/27 9/57/27 36/82/27 35/83/27
f 9/84/16 18/85/16 38/86/16 36/87/16
f 39/88/11 41/89/11 42/90/11 40/91/11
f 17/92/16 11/93/16 40/94/16 42/95/16
f 15/96/28 17/97/28 42/98/28 41/99/28
f 7/38/12 15/8/12 41/89/12 39/88/12
f 3/81/29 43/100/29 26/58/29 9/57/29
f 25/14/30 26/58/30 43/100/30 44/101/30
f 7/28/31 11/15/31 25/14/31 44/101/31
f 7/28/32 44/101/32 6/102/32
f 3/81/33 2/103/33 43/100/33
f 6/102/34 44/101/34 43/100/34 2/103/34
